<?xml version="1.0" encoding="utf-8"?>
<!-- Generator: Adobe Illustrator 24.1.1, SVG Export Plug-In . SVG Version: 6.00 Build 0)  -->
<svg version="1.1" id="Layer_1" xmlns="http://www.w3.org/2000/svg" xmlns:xlink="http://www.w3.org/1999/xlink" x="0px" y="0px"
	 viewBox="0 0 512 512" style="enable-background:new 0 0 512 512;" xml:space="preserve">
<g>
	<path d="M64.6,10.6L256,202L446.6,11.4c6.7-7.2,16.1-11.3,26-11.4C494.4,0,512,17.6,512,39.4c0.2,9.8-3.7,19.2-10.6,26L308.8,256
		l192.6,192.6c6.5,6.3,10.3,14.9,10.6,24c0,21.7-17.6,39.4-39.4,39.4c-10.2,0.4-20-3.4-27.2-10.6L256,309.9L65,501
		c-6.7,6.9-15.9,10.9-25.6,11C17.6,512,0,494.3,0,472.6c-0.2-9.7,3.7-19.2,10.6-26L203.2,256L10.6,63.4C4.2,57.1,0.3,48.5,0,39.4
		C0,17.6,17.6,0,39.4,0C48.9,0.1,57.9,3.9,64.6,10.6z"/>
</g>
</svg>
