<?xml version="1.0" encoding="iso-8859-1"?>
<!-- Uploaded to: SVG Repo, www.svgrepo.com, Generator: SVG Repo Mixer Tools -->
<svg fill="#000000" height="800px" width="800px" version="1.1" id="Capa_1" xmlns="http://www.w3.org/2000/svg" xmlns:xlink="http://www.w3.org/1999/xlink" 
	 viewBox="0 0 490 490" xml:space="preserve">
<path d="M341.538,66.486c-4.876-21.736-27.459-38.224-54.52-38.224c-19.026,0-39.58,11.739-46.376,14.865
	c-45.413,20.902-92.368,42.512-137.308,42.512c-29.847,0-56.877-9.452-82.483-28.848V5.213H0v479.575h20.851V303.671
	c25.65,16.321,52.805,24.295,82.483,24.295c15.335,0,30.629-2.17,45.845-5.811c3.092,10.64,10.311,20.08,20.852,26.87
	c10.466,6.74,22.77,10.171,35.186,10.171c20.05,0,44.141-13.505,44.141-13.505c69.379-34.045,106.712-41.858,144.296-41.858
	c47.857,0,96.347,44.811,96.347,44.811V100.443C490,100.443,429.333,41.506,341.538,66.486z M20.851,278.282V82.193
	c25.652,16.32,52.805,24.298,82.483,24.298c49.507,0,98.574-22.583,146.024-44.421c6.75-3.105,23.501-12.956,37.66-12.956
	c16.738,0,34.656,10.517,34.656,26.166v156.016c-27.286,8.583-54.571,21.137-81.032,33.313
	c-45.418,20.897-92.373,42.506-137.308,42.506C73.488,307.115,46.457,297.677,20.851,278.282z M469.149,306.617
	c-77.473-49.389-154.163-14.071-228.507,20.133c0,0-35.476,21.658-59.32,4.75c-3.755-2.663-9.817-7.406-12.075-14.958
	c27.065-8.586,54.321-19.895,80.111-32.99c37.642-19.112,93.168-36.643,93.168-36.643V87.698
	c49.83-12.62,89.241-5.539,126.623,22.835V306.617z"/>
</svg>